<svg width="12px" height="9px" viewBox="0 0 12 9" version="1.1" xmlns="http://www.w3.org/2000/svg" xmlns:xlink="http://www.w3.org/1999/xlink">\
    <!-- Generator: Sketch 43.2 (39069) - http://www.bohemiancoding.com/sketch -->\
    <desc>Created with Sketch.</desc>\
    <defs></defs>\
    <g id="Page-1" stroke="none" stroke-width="1" fill="none" fill-rule="evenodd">\
        <g id="Upper_Navigation_1024" transform="translate(-107.000000, -108.000000)" fill="#FFFFFF">\
            <g id="Credit-Cards" transform="translate(73.000000, 67.000000)">\
                <g id="Content" transform="translate(28.000000, 34.000000)">\
                    <g id="Card-Categories">\
                        <g id="icon">\
                            <path d="M12,9 C14.6855055,9 16.8625857,10.6292324 16.8625857,14 L7.1380853,14 C7.1380853,10.6295132 9.31471816,9 12,9 Z M6,15 L18,15 L18,16 L6,16 L6,15 Z M13.0349687,7 C13.2628989,7 13.4485535,7.18800501 13.4485535,7.42107659 L13.4485535,7.47228861 C13.4485535,7.70513258 13.2631226,7.8933652 13.0349687,7.8933652 L12.568819,7.8933652 L12.568819,9 L11.4309574,9 L11.4309574,7.8933652 L10.9654787,7.8933652 C10.7364301,7.8933652 10.5516701,7.70490497 10.5516701,7.47228861 L10.5516701,7.42107659 C10.5516701,7.18800501 10.7366537,7 10.9654787,7 L13.0349687,7 Z" id="Combined-Shape"></path>\
                        </g>\
                    </g>\
                </g>\
            </g>\
        </g>\
    </g>\
</svg>