
<svg width="10px" height="9px" viewBox="0 0 10 9" version="1.1" xmlns="http://www.w3.org/2000/svg" xmlns:xlink="http://www.w3.org/1999/xlink">
    <!-- Generator: Sketch 43.2 (39069) - http://www.bohemiancoding.com/sketch -->
    <desc>Created with Sketch.</desc>
    <defs></defs>
    <g id="Page-1" stroke="none" stroke-width="1" fill="none" fill-rule="evenodd" opacity="0.5">
        <g id="Upper_Navigation_1024" transform="translate(-716.000000, -45.000000)" fill="#FFFFFF">
            <g id="Header" transform="translate(38.000000, 32.000000)">
                <g id="Menu" transform="translate(260.000000, 7.000000)">
                    <path d="M418.140976,10.8257801 L422.140916,14.8521578 C422.327667,15.0350705 422.630218,15.0562678 422.847944,14.8706314 C423.042594,14.7046765 423.047444,14.3810089 422.867444,14.2007961 L419.656556,10.9737824 L427.499998,10.9737824 C427.776149,10.9737824 428,10.7617145 428,10.5000993 C428,10.2384841 427.776149,10.0263925 427.499998,10.0263925 L419.656556,10.0263925 L422.867444,6.79938112 C423.047419,6.61919206 423.034644,6.30348225 422.847944,6.12956949 C422.650818,5.94596991 422.324817,5.96231198 422.140916,6.14804313 L418.140976,10.1743948 C418.02345,10.2836024 418.001975,10.3887837 418,10.5000045 C418,10.6096148 418.069975,10.755154 418.140976,10.8257801 Z" id="Shape" transform="translate(423.000000, 10.500000) scale(-1, 1) translate(-423.000000, -10.500000) "></path>
                </g>
            </g>
        </g>
    </g>
</svg>