
<svg width="50px" height="30px" viewBox="0 0 50 30" version="1.1" xmlns="http://www.w3.org/2000/svg" xmlns:xlink="http://www.w3.org/1999/xlink">
    <!-- Generator: Sketch 43.2 (39069) - http://www.bohemiancoding.com/sketch -->
    <desc>Created with Sketch.</desc>
    <defs>
        <rect id="path-1" x="0" y="0" width="50" height="30" rx="2"></rect>
    </defs>
    <g id="Page-1" stroke="none" stroke-width="1" fill="none" fill-rule="evenodd">
        <g id="Upper_Navigation_1024" transform="translate(-633.000000, -141.000000)">
            <g id="Credit-Cards" transform="translate(73.000000, 67.000000)">
                <g id="Content" transform="translate(28.000000, 34.000000)">
                    <g id="Cards-by-Issuer" transform="translate(496.000000, 0.000000)">
                        <g id="Visa" transform="translate(36.000000, 40.000000)">
                            <g id="Visa-light">
                                <g id="Rectangle">
                                    <use fill="#FFFFFF" fill-rule="evenodd" xlink:href="#path-1"></use>
                                    <rect stroke-opacity="0.3" stroke="#8D95A6" stroke-width="1" x="0.5" y="0.5" width="49" height="29" rx="2"></rect>
                                </g>
                                <polyline id="Fill-1" fill="#26337A" points="19.7449954 19.7733803 21.2823641 10.236338 23.7397926 10.236338 22.2025645 19.7733803 19.7449954 19.7733803"></polyline>
                                <path d="M31.1164355,10.4704225 C30.6305438,10.2790141 29.8663571,10.0702817 28.9143917,10.0702817 C26.4847926,10.0702817 24.7745438,11.364507 24.7603479,13.2177465 C24.7448871,14.5885915 25.9807696,15.3530986 26.9124954,15.8087324 C27.8700829,16.2757746 28.1918088,16.5746479 28.1880138,16.9922535 C28.1814078,17.6309859 27.4236866,17.923662 26.7171267,17.923662 C25.7332558,17.923662 25.2105392,17.7795775 24.4023594,17.4235211 L24.0862558,17.2716901 L23.7426037,19.4064789 C24.3156382,19.6721127 25.3779378,19.9026761 26.4804355,19.9147887 C29.0625346,19.9147887 30.7403157,18.6361972 30.7599931,16.6571831 C30.7688479,15.5701408 30.1140115,14.7461972 28.6958318,14.0659155 C27.837053,13.623662 27.3099793,13.3307042 27.316023,12.8830986 C27.3165853,12.4867606 27.7612949,12.0623944 28.7238018,12.0623944 C29.5276244,12.0494366 30.1095138,12.2350704 30.5629378,12.4288732 L30.783606,12.5378873 L31.1164355,10.4704225" id="Fill-2" fill="#26337A"></path>
                                <path d="M34.3886498,16.3921127 C34.5923111,15.8439437 35.3676014,13.726338 35.3676014,13.726338 C35.353265,13.7515493 35.5701382,13.1739437 35.6942465,12.8164789 L35.8600991,13.6390141 C35.8600991,13.6390141 36.3316544,15.9153521 36.4287765,16.3921127 L34.3886498,16.3921127 L34.3886498,16.3921127 Z M37.4203779,10.2460563 L35.5212258,10.2460563 C34.9321682,10.2460563 34.4912535,10.4147887 34.2331982,11.0366197 L30.5837396,19.7767606 L33.1648548,19.7767606 C33.1648548,19.7767606 33.5859516,18.6009859 33.6815276,18.3429577 C33.9630553,18.3429577 36.4710829,18.3478873 36.8290714,18.3478873 C36.9027212,18.6807042 37.1283088,19.7767606 37.1283088,19.7767606 L39.4092028,19.7767606 L37.4203779,10.2460563 L37.4203779,10.2460563 Z" id="Fill-3" fill="#26337A"></path>
                                <path d="M17.6833641,10.2443662 L15.2780806,16.746338 L15.020447,15.4246479 C14.5722235,13.901831 13.1769539,12.2512676 11.6162535,11.4242254 L13.8167512,19.7650704 L16.4175438,19.7635211 L20.28753,10.2443662 L17.6833641,10.2443662" id="Fill-4" fill="#26337A"></path>
                                <path d="M13.0452558,10.2378873 L9.08236406,10.2378873 L9.04975576,10.435493 C12.1333479,11.225493 14.1736152,13.1323944 15.020447,15.4246479 L14.1592788,11.0425352 C14.0107143,10.438169 13.5789355,10.2590141 13.0452558,10.2378873" id="Fill-5" fill="#ED982D"></path>
                            </g>
                        </g>
                    </g>
                </g>
            </g>
        </g>
    </g>
</svg>